<svg id="圖層_1" data-name="圖層 1" xmlns="http://www.w3.org/2000/svg" viewBox="0 0 661.08 349"><defs><style>.cls-1{fill:#fff;}.cls-2{fill:#d10034;}.cls-3{fill:#ba8f68;}</style></defs><path class="cls-1" d="M327.35,177.48a100.6,100.6,0,0,0,12.52.39c9.12-.29,18.65-1.22,26.4-6.44A33.57,33.57,0,0,0,380,151.24c2.5-11-.58-23-7.27-32.13-5.38-7.33-12.78-12.85-19.73-18.72-2.48-2.09-5.15-5.09-4.06-8.14.67-1.88,2.6-3,4.49-3.63,4.74-1.56,14.45.6,19.4,1.24l0-28.94c-8.44-1.31-21.54-4.16-30.07-3.59s-17.17,3.19-23.54,8.88a31.05,31.05,0,0,0-10,21.06,35,35,0,0,0,6.71,22.48c5.53,7.62,13.67,12.82,20.92,18.81,3.84,3.18,9.15,9,5.41,14.22-2,2.75-5.78,3.28-9.16,3.37a78,78,0,0,1-23.48-3.06q0,15.54,0,31.06c0,1,13.45,2.84,14.84,3,1,.12,1.95.23,2.92.32"/><polygon class="cls-1" points="504.33 60.08 421.4 60.08 421.4 86.92 445.43 86.92 445.43 174.88 480.31 174.88 480.31 86.92 504.33 86.92 504.33 60.08"/><polygon class="cls-1" points="607.07 60.1 592.71 99.81 577.07 60.1 543.02 60.1 578.03 134.81 576.44 138.52 561.82 174.86 593.72 174.86 639.68 60.1 607.07 60.1"/><polygon class="cls-1" points="129.95 60.08 47.03 60.08 47.03 86.92 71.05 86.92 71.05 174.88 105.93 174.88 105.93 86.92 129.95 86.92 129.95 60.08"/><path class="cls-1" d="M228.74,60.08H203.21L159.66,174.89h32.76l3.93-10.74h39.24l3.93,10.74h32.77Zm-1.83,81.31H205.05l10.93-33Z"/><path class="cls-2" d="M118.41,73.17H58.57a1.13,1.13,0,1,0,0,2.26H87.36v87.38a1.13,1.13,0,1,0,2.26,0V75.43h28.79a1.13,1.13,0,1,0,0-2.26"/><path class="cls-2" d="M492.79,73.17H432.94a1.13,1.13,0,0,0,0,2.26h28.8v87.38a1.13,1.13,0,1,0,2.25,0V75.43h28.8a1.13,1.13,0,0,0,0-2.26"/><path class="cls-2" d="M252.43,162.4,217,71.75a1.18,1.18,0,0,0-2.11,0l-35.4,90.65a1.13,1.13,0,1,0,2.1.82l4-10.37h60.61l4.05,10.37a1.12,1.12,0,0,0,1,.72,1.15,1.15,0,0,0,.41-.08,1.12,1.12,0,0,0,.64-1.46m-65.88-11.81L216,75.26l29.41,75.33Z"/><path class="cls-2" d="M337.35,162.17a64.74,64.74,0,0,1-15.19-1.84,1.13,1.13,0,0,1,.54-2.19c7.63,1.92,24.41,3.72,33.28-3.19,3.78-2.95,5.7-7.23,5.7-12.74,0-10.73-9-18.8-17.7-26.61-8.51-7.64-17.31-15.53-17.31-25.89,0-5.16,1.73-9.2,5.15-12,8.27-6.86,23.44-4.08,24.08-4a1.13,1.13,0,1,1-.42,2.22c-.15,0-14.78-2.7-22.23,3.48-2.87,2.38-4.33,5.84-4.33,10.29,0,9.35,8.05,16.57,16.57,24.21,9.07,8.14,18.45,16.56,18.45,28.29,0,6.24-2.22,11.12-6.58,14.53-5.26,4.1-12.84,5.43-20,5.43"/><path class="cls-2" d="M619.64,71.11a1.13,1.13,0,0,0-1.47.62L594,131.16,566.05,71.47a1.13,1.13,0,0,0-2,1L592.82,134,581.7,161.33a1.13,1.13,0,0,0,2.1.85l36.46-89.6a1.13,1.13,0,0,0-.62-1.47"/><path class="cls-1" d="M506.83,291.12v-7.06a.36.36,0,0,1,.36-.36h15a.36.36,0,0,0,.35-.36v-6.66a.21.21,0,0,0-.32-.2l-2.39,1.18a1.78,1.78,0,0,1-.68.16H507.19a.36.36,0,0,1-.36-.36v-5.89a2,2,0,0,1,.16-.68l1.18-2.39a.21.21,0,0,0-.2-.32h-7.3a.36.36,0,0,0-.36.36v8.92a.35.35,0,0,1-.35.36h-7.81c-.2,0-.27-.13-.17-.3s.44-.65.65-1c.5-.79,1-1.6,1.43-2.43.23-.42.46-.84.67-1.27.12-.22.22-.44.33-.66l.16-.35.09-.19c.05-.11-.07-.25-.25-.32l-6-2.06c-.19-.06-.34-.06-.36,0l0,.11-.08.27c-.05.18-.11.37-.17.56-.12.38-.25.76-.38,1.14-.28.77-.58,1.53-.9,2.29a43.6,43.6,0,0,1-2.18,4.45c-.4.74-.85,1.43-1.28,2.15s-.91,1.39-1.42,2.06a37.23,37.23,0,0,1-3,3.58.44.44,0,0,0,0,.54l2,2.23a.37.37,0,0,0,.52,0,42.1,42.1,0,0,0,3.89-3.42c.44-.41.84-.85,1.25-1.29a.94.94,0,0,1,.6-.26H500a.35.35,0,0,1,.35.36v7.06a.35.35,0,0,1-.35.35H479.78a.36.36,0,0,0-.36.36V297a.35.35,0,0,0,.36.35H500a.35.35,0,0,1,.35.36v12.75a.36.36,0,0,0,.36.36h5.8a.36.36,0,0,0,.36-.36V297.71a.36.36,0,0,1,.36-.36h19.29a.35.35,0,0,0,.36-.35v-6.66a.21.21,0,0,0-.33-.2l-2.39,1.18a2,2,0,0,1-.67.15H507.19a.36.36,0,0,1-.36-.35"/><path class="cls-1" d="M578,274.67H573.3a.36.36,0,0,0-.36.35v4.59a.36.36,0,0,0,.36.36H578a.36.36,0,0,1,.36.36v3.38a.36.36,0,0,1-.36.36h-6a.35.35,0,0,0-.36.35v2a.51.51,0,0,1-.33.47l-2.58.87a.25.25,0,0,1-.34-.25v-5.85a.36.36,0,0,1,.36-.36h2.77a.36.36,0,0,0,.35-.36v-6.19c0-.2-.14-.29-.32-.2l-2.39,1.18a1.71,1.71,0,0,1-.54.15c-.13,0-.23-.15-.23-.35v-4a2,2,0,0,1,.16-.68l1.18-2.39c.09-.18,0-.32-.2-.32h-6.41a.36.36,0,0,0-.36.36v7a.35.35,0,0,1-.36.35h-6.68a.36.36,0,0,0-.36.36V281a.36.36,0,0,0,.36.36h6.68a.36.36,0,0,1,.36.36v7.74a.52.52,0,0,1-.34.47l-8.23,2.76a.28.28,0,0,0-.15.42l3.13,5.25a.37.37,0,0,0,.5.14l4.77-2.54c.18-.09.32,0,.32.19v7c0,2.53-5,1.24-6.37.83a.49.49,0,0,0-.52.21l-.1.2a.41.41,0,0,0,.11.52,10,10,0,0,1,3.87,5.54.46.46,0,0,0,.42.35h2.59c5.63,0,5.63-4.58,5.63-4.58V293.12a.65.65,0,0,1,.32-.53l4-2.15a.4.4,0,0,0,.18-.5l-.09-.25a.22.22,0,0,1,.22-.33h5a.36.36,0,0,1,.36.36v3.92a.36.36,0,0,1-.36.35h-7.83a.36.36,0,0,0-.36.36v4.59a.36.36,0,0,0,.36.35h7.34a.26.26,0,0,1,.26.35,14.37,14.37,0,0,1-7.57,9.11.36.36,0,0,0-.15.48l1,2a.48.48,0,0,0,.51.23c8.07-2.16,12.81-6,13-15.79,0-.19,0-.51,0-.7V268.54a.36.36,0,0,0-.35-.36h-5.54a.36.36,0,0,0-.36.36v5.77a.36.36,0,0,1-.36.36"/><path class="cls-1" d="M601.58,294h-7.66a.36.36,0,0,1-.36-.36v-3.9a.36.36,0,0,1,.36-.36h8.32a.36.36,0,0,0,.36-.36v-6.08a.2.2,0,0,0-.32-.2l-2.4,1.18a2,2,0,0,1-.67.16h-5.29a.36.36,0,0,1-.36-.36v-3.38a.36.36,0,0,1,.36-.36h9.31a.36.36,0,0,0,.36-.35v-6.09c0-.2-.14-.28-.32-.2l-2.39,1.18a1.78,1.78,0,0,1-.68.16h-6.28a.36.36,0,0,1-.36-.36v-2.74a1.78,1.78,0,0,1,.16-.68l1.18-2.39a.21.21,0,0,0-.2-.32h-7.13a.36.36,0,0,0-.36.35v41.9a.36.36,0,0,0,.36.35h5.64a.35.35,0,0,0,.35-.35V299.65a.36.36,0,0,1,.36-.36h10.69a.36.36,0,0,0,.36-.35v-6.08c0-.2-.14-.29-.32-.2l-2.39,1.17a1.78,1.78,0,0,1-.68.16"/><path class="cls-1" d="M326.74,271.47v4.94a.36.36,0,0,0,.35.36h14.08a.36.36,0,0,1,.36.35V281a.36.36,0,0,1-.36.36H328.92a.35.35,0,0,0-.35.35v28.55a.35.35,0,0,0,.35.35h5.74a.36.36,0,0,0,.36-.35v-2.46a.36.36,0,0,1,.36-.36h28.84a.36.36,0,0,1,.36.36v2.46a.36.36,0,0,0,.36.35h5.94a.36.36,0,0,0,.36-.35V284.71a2,2,0,0,1,.15-.68l1.18-2.39c.09-.18,0-.32-.2-.32h-14A.36.36,0,0,1,358,281v-3.84a.36.36,0,0,1,.36-.35h14.85a.36.36,0,0,0,.36-.36V270a.21.21,0,0,0-.32-.2L370.84,271a1.83,1.83,0,0,1-.68.16H327.09a.36.36,0,0,0-.35.36M335,301.39V287.26a.36.36,0,0,1,.36-.36h5.79a.36.36,0,0,1,.36.36,11.11,11.11,0,0,1-5.12,9.42.36.36,0,0,0-.14.49l1.2,2.16a.4.4,0,0,0,.5.17c6-2.45,9.49-6.42,9.63-12.24a.36.36,0,0,1,.36-.36h3.4a.35.35,0,0,1,.35.36v4.54c0,3.21,2.2,5.81,6.17,5.81h6.34a.36.36,0,0,1,.36.36v3.42a.36.36,0,0,1-.36.36H335.38a.36.36,0,0,1-.36-.36m29.56-14.13v5.15a.36.36,0,0,1-.36.36h-4.83a1.48,1.48,0,0,1-1.51-1.49v-4a.36.36,0,0,1,.36-.36h6a.36.36,0,0,1,.36.36m-13.22-5.94h-3.21a.36.36,0,0,1-.35-.36v-3.84a.35.35,0,0,1,.35-.35h3.21a.35.35,0,0,1,.35.35V281a.35.35,0,0,1-.35.36"/><path class="cls-1" d="M440.56,286.41h5.29a.36.36,0,0,0,.35-.36V272.38a1.73,1.73,0,0,1,.16-.67l1.18-2.4a.21.21,0,0,0-.2-.32H422.65a.35.35,0,0,0-.33.36v16.71a.35.35,0,0,0,.33.36h17.91ZM428,281.91v-2.09a.36.36,0,0,1,.36-.36h11.8a.35.35,0,0,1,.35.36v2.09a.34.34,0,0,1-.35.35h-11.8a.36.36,0,0,1-.36-.35m12.51-8.42v1.88a.35.35,0,0,1-.35.35h-11.8a.36.36,0,0,1-.36-.35v-1.88a.36.36,0,0,1,.36-.36h11.8a.35.35,0,0,1,.35.36"/><path class="cls-1" d="M437.19,304.77v-3.6a.36.36,0,0,1,.35-.36h9.75a.36.36,0,0,0,.36-.35V294.8c0-.2-.15-.28-.33-.2l-2.39,1.18a1.78,1.78,0,0,1-.68.16h-6.71a.36.36,0,0,1-.35-.36v-2.45a.36.36,0,0,1,.35-.36h13.81a.35.35,0,0,0,.35-.35v-5.66a.2.2,0,0,0-.31-.2l-2.4,1.18a1.73,1.73,0,0,1-.67.16H418.15a.36.36,0,0,0-.36.35v4.17a.36.36,0,0,0,.36.35h5.19a.24.24,0,0,1,.25.34c-1.14,3.57-4.15,11.1-10.51,16.64a.34.34,0,0,0,0,.49l1.37,1.47a.48.48,0,0,0,.56.08,29.94,29.94,0,0,0,8.68-6.74.37.37,0,0,1,.51,0c3.57,3,9.67,6.65,25,6.71a.62.62,0,0,0,.5-.33l2.52-5.76c.08-.18,0-.3-.21-.27a50.08,50.08,0,0,1-14.47-.18.43.43,0,0,1-.35-.42m-9.87-12h3.75a.36.36,0,0,1,.36.36v10.31a.25.25,0,0,1-.35.25,38.66,38.66,0,0,1-4.62-1.77.3.3,0,0,1-.13-.45,39,39,0,0,0,3.32-6.66.45.45,0,0,0-.18-.52l-2.2-1.33c-.17-.1-.15-.19.05-.19"/><path class="cls-1" d="M418.8,294.53c-1,.41-2.08.83-3.25,1.24a.24.24,0,0,1-.34-.24v-9.48a.36.36,0,0,1,.36-.35h4.9a.35.35,0,0,0,.35-.35v-6.14c0-.2-.14-.29-.31-.2l-2.4,1.18a1.94,1.94,0,0,1-.68.16h-1.86a.36.36,0,0,1-.36-.36v-5.1a1.78,1.78,0,0,1,.16-.67l1.17-2.4c.1-.17,0-.31-.19-.31h-6.42a.35.35,0,0,0-.36.35V280a.36.36,0,0,1-.35.36h-6.59a.35.35,0,0,0-.36.35v4.65a.36.36,0,0,0,.36.35h6.59a.35.35,0,0,1,.35.35v11.17a.48.48,0,0,1-.34.45,62.08,62.08,0,0,1-7.41,1.47c-.2,0-.28.18-.18.35l3.46,5.85a.47.47,0,0,0,.52.2c7.59-2.47,12.5-5.59,15.16-8a.42.42,0,0,0,.07-.54l-1.53-2.31a.44.44,0,0,0-.52-.15"/><path class="cls-3" d="M112.39,268a3.15,3.15,0,0,0-1.34-.3,5,5,0,0,0-2,.79c-2.45,1.25-5.57,1.52-8.27,1.6-1.16,0-2.38,0-3.85,0A75,75,0,0,1,86.52,269a39.34,39.34,0,0,1-5.71-1.41,40.28,40.28,0,0,1-8.39-3.85A53.41,53.41,0,0,1,65,258c-.65-.58-1.32-1.14-2-1.69l-1-.82-1.2-.94h.37s1.47,0,2.31,0l.51,0c1.28-.15,2.62-.35,4.07-.62a38,38,0,0,0,13.41-5.18c2.22-1.39,6.11-4.35,7.12-8.52a5.53,5.53,0,0,0,.18-2.13c-.41-3.93-4.47-5.88-6.87-6.69a32.25,32.25,0,0,0-7-1.3,55.38,55.38,0,0,0-7-.26l-.84,0a75.66,75.66,0,0,0-15.57,2A67.39,67.39,0,0,0,37.39,237a50.76,50.76,0,0,0-6.45,3.9c-1.45,1-3.88,2.76-3.43,4.75.38,1.82,2.48,2.51,4.27,2.91a35.39,35.39,0,0,0,4.3.67,4.83,4.83,0,0,0,.58.05c.27,0,.32-.07.3-.16s-.37-.27-.65-.34c-.74-.21-1.5-.36-2.29-.51a24.16,24.16,0,0,1-2.83-.67,1.79,1.79,0,0,1-1.09-.87,1.47,1.47,0,0,1,0-1.13,5.82,5.82,0,0,1,1.57-2,18.25,18.25,0,0,1,2.08-1.68,48,48,0,0,1,7.33-4,73.5,73.5,0,0,1,9.58-3.7,60.44,60.44,0,0,1,10.27-2.29,79.54,79.54,0,0,1,8.41-.69,51.24,51.24,0,0,1,9.22.56c2.67.41,5.88,1.19,7.09,3.52a4.84,4.84,0,0,1,.07,4c-.88,2.68-3,5.16-6.55,7.57a30.92,30.92,0,0,1-10.28,4.42,35.18,35.18,0,0,1-8.24,1.34,22,22,0,0,1-4.44-.33,1.62,1.62,0,0,0-.31,0c-.12,0-.42,0-.46.21a.61.61,0,0,0,.05.33,2,2,0,0,0,1.3,1.09,10.6,10.6,0,0,1,1.93.85A16.53,16.53,0,0,1,62,257.32c1.43,1.37,3,2.65,4.43,3.89l.14.11a41.94,41.94,0,0,0,16,8.32A66.15,66.15,0,0,0,101,271.87l1.65-.07.63,0c2.94-.19,6.32-.65,9.17-2.62.59-.41.58-.92-.1-1.2"/><path class="cls-3" d="M58,240.21c-.05-.1-.23-.21-.81-.2a2,2,0,0,0-.65.12,12.26,12.26,0,0,0-2.28,1.31,46.36,46.36,0,0,0-8.61,9,78.89,78.89,0,0,0-6.74,10.27c-.68,1.23-1.46,3-.42,4.52a2.63,2.63,0,0,0,2,1.15l.33,0a2.39,2.39,0,0,0,.6,0,.63.63,0,0,0,.27-.1c.37-.3-.25-.63-.41-.83-.94-1.13.46-3.33,1.38-4.79.2-.31.37-.58.49-.79,1.11-2,2.27-3.93,3.46-5.73a64.22,64.22,0,0,1,8.36-10.23,28.39,28.39,0,0,0,2.59-2.78c.37-.47.52-.79.44-.95"/><path class="cls-3" d="M622.63,222.23c-.39-.84-3.21-1.21-4-1.24h-.59l-3.9.1c-2.12,0-2.49.15-4.63.27l-10.87.61c-1.69.1-3.39.26-5.11.41l-2,.17-6.22.55c.35-.31.71-.62,1-.94a10.83,10.83,0,0,0,2.35-2.7,2.79,2.79,0,0,0,.41-2.71A4,4,0,0,0,586,215a10.58,10.58,0,0,0-4.4,1.73l-.95.52L577.69,219a60.79,60.79,0,0,0-7.4,5.37l-.44.37c-5.17.65-10,1.31-14.6,2-4.23.67-8.14,1.33-12,2a9.48,9.48,0,0,0-2.15.57c-.13.06-.31.15-.34.26s.15.37.38.49a3.5,3.5,0,0,0,1.5.34,10.33,10.33,0,0,0,1.36-.07c2.39-.26,4.8-.7,7.14-1.13.89-.16,1.79-.33,2.69-.48,4.47-.77,9-1.44,13.66-2-1.52,1.39-2.95,2.81-4.27,4.25-.78.85-1.53,1.73-2.26,2.64-10,.28-21.27,2.91-32.53,7.62-1.24.51-2.54,1.08-3.87,1.71-2.41,1.15-9.05,4.28-9.05,4.28a3,3,0,0,1-1.21.34,1.12,1.12,0,0,1-1-.48c-.81-1.23.52-4.2.53-4.23l.27-.57c.21-.47.43-.93.63-1.41.4-1,1.51-4.17-.74-5.67a2.58,2.58,0,0,0-1.57-.37h-.15a7.29,7.29,0,0,0-1.37.24l-.36.08a44.15,44.15,0,0,0-9.59,3.53,54.32,54.32,0,0,0-8.69,5.08l-1.91,1.41.6-1.05s1.62-2.84,2.24-4.33l.2-.47a5.82,5.82,0,0,0,.61-2,1.32,1.32,0,0,0-.16-.73s0,0,0,0a1.82,1.82,0,0,0-.24-.29,2.76,2.76,0,0,0-1.66-.77,11.79,11.79,0,0,0-2.43-.25c-.76,0-1.52,0-2.28,0a70.83,70.83,0,0,0-7.74.64,85.54,85.54,0,0,0-15.23,3.64c-2.45.82-4.9,1.76-7.27,2.79-.9.4-1.8.82-2.74,1.28-1.36.66-2.76,1.34-4.2,1.88a2.79,2.79,0,0,1-.9.18h0a1,1,0,0,1-.92-.49c-.34-.66.35-1.75.72-2.33a13.23,13.23,0,0,1,1.82-2.18l.56-.52a1.32,1.32,0,0,0-.91-.82,5.05,5.05,0,0,0-.79-.16l-.31,0,.09-.3a3,3,0,0,0,.14-.59c0-.82-1.11-1.63-1.69-1.94a5.08,5.08,0,0,0-2.59-.51,11.23,11.23,0,0,0-1.89.24,9.63,9.63,0,0,0-2-.34c-.49-.05-1-.08-1.46-.11-.76,0-1.53,0-2.29,0a61.68,61.68,0,0,0-13.11,2.15c-.82.2-1.64.4-2.46.62-2.59.66-5.27,1.34-7.95,1.83a40.39,40.39,0,0,1-5.26.7l-.59,0a5,5,0,0,1-2.86-.6,3.84,3.84,0,0,1-1.31-4.71.6.6,0,0,0,0-.54,2.65,2.65,0,0,0-1.61-.94.86.86,0,0,0-.22,0,1.8,1.8,0,0,0-.83.34l-1.29.78c-.87.53-1.74,1.06-2.61,1.61-2.14,1.32-4.19,2.84-6.2,4.35-1.83,1.38-3.54,2.9-5.39,4.25-.24.17-1.13.63-1.21.91l.2-.7c.11-.62.23-1.57.24-1.77a7.1,7.1,0,0,0-.66-3.47,4.24,4.24,0,0,0-1.05-1.33l-.16-.13h0a4.17,4.17,0,0,0-.38-.27l-.14-.08a1.12,1.12,0,0,0-.27-.1,6.14,6.14,0,0,0-1.31-.31,18.22,18.22,0,0,0-3.71.1,69.68,69.68,0,0,0-11.41,1.9c-6.49,1.64-12.47,4.13-19.61,7.22l-1.36.63a16.09,16.09,0,0,1-4.78,1.66l-.24,0a1.33,1.33,0,0,1-.51-.08,1,1,0,0,1-.59-.57c-.23-.66.28-1.54.59-2.07l.09-.15a16.24,16.24,0,0,1,4.49-4.74.61.61,0,0,0-.16-.24,3.48,3.48,0,0,0-2.3-1,.54.54,0,0,0-.27,0l-.55.36a126.11,126.11,0,0,1-13.38,7.43,1.89,1.89,0,0,1-.74.19,1.11,1.11,0,0,1-1-.5,1.43,1.43,0,0,1,0-1.39,27.44,27.44,0,0,1,3.15-5s0,0,0,0l0,0c.22-.33.23-.88-.35-.92a31.81,31.81,0,0,0-5.34.27c-3.43.4-6.82,1.07-10.22,1.71-5.28,1-10.16,2.1-14.92,3.39-5.07,1.27-9.9,2.67-14.76,4.28-.95.28-2,.68-3,1.09l-.94.36a21,21,0,0,1-6.82,1.82,1.69,1.69,0,0,1-.58-.06.89.89,0,0,1-.62-.57c-.19-.61.34-1.4.77-1.94s.84-1,1.28-1.51c.91-1,1.86-1.91,2.92-2.92.12-.12.13-.17.06-.32a1.82,1.82,0,0,0-1.8-.9l-.53.05a6.09,6.09,0,0,0-2.63,1.5c-.17.13-.33.27-.5.39l-.32.23a32,32,0,0,1-5,2.95,27.32,27.32,0,0,1-2.73,1.1l-.29.11a5.75,5.75,0,0,1-1.64.45.87.87,0,0,1-.83-.38c-.44-.78.64-1.71,1.22-2.22a27.95,27.95,0,0,1,5.7-3.84l.6-.31a33,33,0,0,1,3.19-1.48,4.13,4.13,0,0,1,1.38-.36,1.48,1.48,0,0,1,.37,0c.16,0,.31.1.47.15a1.82,1.82,0,0,0,.63.15,1.17,1.17,0,0,0,.69-.27c.22-.19.23-.32.22-.4,0-.33-.53-.72-1-1a3,3,0,0,0-1.43-.28,4.06,4.06,0,0,0-1,.14c-.79.21-1.56.45-2.3.69-.1,0-.19-.05-.27-.06a63.47,63.47,0,0,0-8-.29,73.58,73.58,0,0,0-18,2.82c-8.58,2.32-17,5.92-24.22,9.1-1,.4-2,.84-3,1.29s-2,.88-3,1.28l-2.08.85a6.38,6.38,0,0,1-2.49.61,1.24,1.24,0,0,1-.64-.13,1.2,1.2,0,0,1-.61-.78,3.26,3.26,0,0,1,.54-2.23c.45-.71.91-1.43,1.38-2.15l.68-1.06c.65-1,1.32-2.05,2.06-3l1.68-2.15a1.09,1.09,0,0,1,.41-.33,107.82,107.82,0,0,0,12.37-7.22c4.88-3.52,9.19-6.94,13.15-10.4,5.49-.64,10.69-1,15.7-1.16,1.87,0,3.74-.06,5.58,0,.6,0,1.21,0,1.82,0s1.46,0,2.23,0h.52a8.32,8.32,0,0,0,1.17-.12,1.36,1.36,0,0,0-.17-.16c-1.14-.93-3.32-1.06-4-1.11-3.06-.19-6.28-.24-9.58-.16-3.5.09-7.14.34-11.07.74l.14-.12.14-.13c1.41-1.29,2.88-2.63,4.2-4.09,1-1.07,3.47-4.53,2.89-6.08a1.38,1.38,0,0,0-1.26-.8h-.3a5.25,5.25,0,0,0-2.35.95l-.52.29c-1,.54-1.95,1.09-2.91,1.66-2.11,1.24-4.19,2.57-6.19,3.95s-4,2.85-5.87,4.36c-.84.67-1.67,1.35-2.48,2-5.29.92-10.57,2.07-15.7,3.19-4,.89-8.2,1.81-12.36,2.6l-.4.09a4.83,4.83,0,0,1-1,.18h0c-.2,0-.45.06-.73.09-1.45.13-1.64.32-1.65.32h0c-.09.41.4.71.74.8a3.75,3.75,0,0,0,1.08.1l.34,0a67.71,67.71,0,0,0,12-2.06l3.15-.72c4.28-.95,8.32-1.77,12.24-2.47l-.64.56c-1.15,1.05-2.74,2.71-3,3l-.06.11,0,0c-.32.3-1.82,1.72-2.05,2-2.21,2.33-4.14,4.54-5.9,6.69a3.7,3.7,0,0,0-.47-.25,9.37,9.37,0,0,0-1.73-.41,26.28,26.28,0,0,0-3.89-.32c-1.24,0-2.51,0-3.76,0a69.18,69.18,0,0,0-8.76.77,72.3,72.3,0,0,0-21.58,6.71l-.68.4-.09.05-.07-.08-.52-.59-1.23-1.33a32,32,0,0,1-2.7-3.15c-.13-.19-.45-.73-.51-.83l-.06-.13.2-.11s.4-.28.55-.4a1.43,1.43,0,0,0,.49-1.67,2.83,2.83,0,0,0-1.25-1.48,3.73,3.73,0,0,0-1.76-.49,1.11,1.11,0,0,0-.94.42c-.38.54-.34,1.26.08,2.37a22.64,22.64,0,0,0-2.52.63c-.62.19-1.24.37-1.85.51l-.84.19c-1.17.26-2.4.58-4,1-4.8,1.39-9.78,2.94-15.24,4.75-8.22,2.71-17.1,5.41-26.32,6.76l-.89.13a27.89,27.89,0,0,1-3.56.4c-.74,0-2.92-.11-3.5-1.87-.46-1.4.5-3.39,1.64-4.62a16.08,16.08,0,0,1,2.12-2l.54.34a10,10,0,0,0,5.67,1.57,7,7,0,0,0,1.19-.14,4.09,4.09,0,0,0,3.18-2.43,2.34,2.34,0,0,0-.78-2.46,5.48,5.48,0,0,0-4.17-1.34,14.34,14.34,0,0,0-4.45.92c-1.76.71-6,2.74-7.18,6.33a5.16,5.16,0,0,0,.13,4.11,4.82,4.82,0,0,0,2.9,2.45,12.5,12.5,0,0,0,4,.5l.76,0a43.55,43.55,0,0,0,5.68-.67l.81-.13c1.17-.18,2.34-.39,3.51-.61l3.14-.65h0c6.59-1.46,13.11-3.62,19.43-5.7,3.59-1.19,7.3-2.42,11-3.5l3.05-.79c2.51-.65,5-1.29,7.51-2a38.51,38.51,0,0,0,2.8,3.31c.62.67,1.24,1.34,1.81,2l.84,1L169,252a32.54,32.54,0,0,0-7.05,5.4c-3.2,3.6-4.24,6.46-3.08,8.51,1.38,2.42,4.06,2.71,5.53,2.67a10.61,10.61,0,0,0,3.69-.78c2.7-1.12,5.94-3.52,6.95-6.93,1.08-3-.44-5.88-1.43-7.32-.14-.19-.63-.8-.74-.94l.15-.1.12-.07s.64-.39.87-.51a71.18,71.18,0,0,1,25.84-7.4c2.25-.24,4.14-.4,6.06-.45,1,0,1.95,0,2.84,0a12.39,12.39,0,0,1,1.87.22,5.74,5.74,0,0,1,1,.33l.09,0c-.81,1-1.59,2-2.32,3a3.67,3.67,0,0,1-.55.8l-.25.33-.47.66c-.34.49-.69,1-1.06,1.46a37.32,37.32,0,0,0-2.06,3.17,6.73,6.73,0,0,0-1.19,3.35,3.46,3.46,0,0,0,2.53,3,4.68,4.68,0,0,0,1.73.27,8.31,8.31,0,0,0,2.69-.61c3.78-1.48,7.54-3.12,11.2-4.72,4.94-2.16,10.05-4.39,15.24-6.23a83.58,83.58,0,0,1,25.61-4.88c1,0,2.06,0,3.08,0a26.86,26.86,0,0,0-7.32,4.63c-.78.7-1.74,1.57-1.75,2.7a2.43,2.43,0,0,0,1.05,1.89,5.25,5.25,0,0,0,3.22,1,10.94,10.94,0,0,0,4.51-1.27c.75-.38,1.49-.79,2.22-1.2l2.1-1.14-.72.94a2.92,2.92,0,0,0-.21.32,2,2,0,0,0,.12,2.48,4.78,4.78,0,0,0,2.89,1,8.6,8.6,0,0,0,1.13,0,19.88,19.88,0,0,0,4.8-.88c1-.28,2-.66,3-1s1.87-.7,2.85-1,2.15-.67,3.24-1c.87-.28,1.73-.57,2.6-.83,2.75-.85,5.61-1.68,8.76-2.55,4.82-1.34,9.82-2.48,14.66-3.6,2.42-.55,4.88-1,7.32-1.43,2.12-.38,4.25-.61,6.37-1a19.81,19.81,0,0,0-4.4,6.07,2.1,2.1,0,0,0,1,2.74,3.69,3.69,0,0,0,1.91.45,9.72,9.72,0,0,0,3.87-1.27l5.13-2.51c.11,0,3.23-1.67,3.23-1.67l-.3.67a11.83,11.83,0,0,0-.83,2.57,2.55,2.55,0,0,0,1.85,2.38,4.71,4.71,0,0,0,1.68.25h.15l.59-.05a20.65,20.65,0,0,0,6.3-2.38c.75-.38,1.51-.76,2.25-1.09,2.78-1.26,5.72-2.45,8.76-3.55,1.19-.43,2.39-.84,3.59-1.24A81.85,81.85,0,0,1,371.72,241c2.74-.51,7.38-1,8.27-1s2.06-.09,2.39.77l.05.16a8,8,0,0,1,.45,2.74,14.74,14.74,0,0,1-.39,2.71,13.1,13.1,0,0,1-1.47,4.07s0,.06.05.19c.37.64,1.2,1.54,1.85,1.52.32,0,.38-.1.45-.22.2-.27,1.2-2.83,1.2-2.83l1.65-1.3c2.29-1.7,4.5-3.54,6.83-5.21s4.78-3.3,7.25-4.82c.14-.08,1-.56,1.15-.62l0,.15.05.14c0,.08.22.56.31.74a7.9,7.9,0,0,0,3.46,3.27,11.16,11.16,0,0,0,5.26,1,30.3,30.3,0,0,0,3.24-.29,87.4,87.4,0,0,0,9.81-2.15l.56-.14c4.94-1.28,10.06-2.6,15.29-2.74h.91a19.14,19.14,0,0,0-3.07,1.7,21.66,21.66,0,0,0-3.46,3c-1.24,1.36-2.13,3.25-.86,4.52a5.43,5.43,0,0,0,3.15,1.11h.8c2.6-.07,5-1.31,7.15-2.58.12-.07,1.5-1,1.53-1.07l.49-.34-.08.59a3.27,3.27,0,0,0,.57,2.37,3.87,3.87,0,0,0,3.23,1.21h.09a11.63,11.63,0,0,0,5-1.68c1.71-.88,3.48-1.72,5.26-2.48a86,86,0,0,1,14.49-4.74l1.26-.28a74.68,74.68,0,0,1,7.38-1.21c1.29-.14,2.58-.26,3.88-.34l1.51-.07a7.77,7.77,0,0,1,2.12.11s.09.06.14.11a1.13,1.13,0,0,1,.25.81,2.51,2.51,0,0,1-.25.91l-.09.22a74,74,0,0,1-3.53,7.66.2.2,0,0,0,0,.26,2.85,2.85,0,0,0,2.25,1,1.72,1.72,0,0,0,.53-.1,2.11,2.11,0,0,0,.37-.22l1.33-.85c3.45-2.22,6.31-3.92,9-5.37a63.22,63.22,0,0,1,9.6-4.12,3.57,3.57,0,0,1,1-.22h.29a1.08,1.08,0,0,1,.84.49,2,2,0,0,1-.15,1.8c-.24.59-.54,1.16-.84,1.73a9.7,9.7,0,0,0-.83,1.81c-.66,2.1-.5,4.75,1.36,6a4.44,4.44,0,0,0,2.59.73h.1c2.08,0,4-1.16,5.91-2.24.59-.34,1.17-.67,1.74-1a116,116,0,0,1,19.44-7.54,102.85,102.85,0,0,1,18.19-4,61.15,61.15,0,0,0-5.29,8.2c-.56,1-1.4,2.63-1.24,4,.18,1.57,1.74,2.3,3,2.45a2.54,2.54,0,0,0,.39,0H557a8,8,0,0,0,2.27-.58A22.42,22.42,0,0,0,562,247.7c1.18-.59,2.34-1.22,3.55-1.86a77.27,77.27,0,0,1,7-3.48,104.8,104.8,0,0,1,14.8-4.92c2.33-.59,4.85-1.14,7.5-1.65,1.58-.3,3.29-.6,5.11-.79.72-.08,1.48-.15,2.23-.17a8.57,8.57,0,0,1,2.42.22,4.48,4.48,0,0,1,.53.2c.33.12,1.53.75,1.71.22s-.51-.87-.86-1.06a5.57,5.57,0,0,0-1.48-.53,15,15,0,0,0-3.47-.32h-.8a48.86,48.86,0,0,0-6.15.71,93.84,93.84,0,0,0-29.76,9.58c-1.17.59-2.33,1.2-3.49,1.83l-.3.17a5,5,0,0,1-2.23.84,1.75,1.75,0,0,1-.88-.2c-.89-.48-.32-1.55,0-2.12l.12-.24c.41-.86.86-1.7,1.33-2.52A39,39,0,0,1,562,237a6.69,6.69,0,0,1,.69-.75,75.84,75.84,0,0,0,10.15-5.1l1.24-.71a85.76,85.76,0,0,0,8.62-5.24c4.5-.44,9.28-.88,14-1.26,7.27-.6,14.76-.88,21.42-1.13,1,0,1.92-.09,2.87-.17h.38c.31,0,1.13,0,1.25-.19,0,0,0-.13,0-.17m-387.06,2.91a56.87,56.87,0,0,1,10.09-6.43l.75-.34-.43.71c-1,1.67-4.67,5.07-5.08,5.45l-1.24,1.16-2.25,2.07c-2,.25-4.16.54-6.39.87,1.22-1,2.46-1.94,3.71-2.86ZM219.82,239a116.65,116.65,0,0,1,8.72-8.24c2.3-.38,4.56-.71,6.76-1l-.43.39c-2.83,2.54-7.6,6.21-14.17,10.91l-.39.28c-1.53,1.1-4.65,2.84-4.78,2.91l-1.46.8Zm-110.18,9.5a9,9,0,0,1,3.74-2,13.28,13.28,0,0,1,2.8-.39c.81,0,1,.06,1.16.19s.16.51-.34,1.56a3.78,3.78,0,0,1-3.39,2.17,8,8,0,0,1-3.93-1.17l-.27-.18Zm61,14.42a12,12,0,0,1-4.14,3.17,12.49,12.49,0,0,1-3.76,1.14,1.71,1.71,0,0,1-1.43-.51c-1.38-1.44.45-4.43,1.67-6.07a23,23,0,0,1,3.52-3.8,29.24,29.24,0,0,1,3.92-2.84c.14-.1.85-.52.85-.52l.1-.06.14.2s.39.58.51.81c1.44,2.88,1,5.65-1.38,8.48m275.85-22.52-.17.11c-3.25,2.25-6.07,4.2-9.93,5.13a1.7,1.7,0,0,1-.42.06.59.59,0,0,1-.61-.27c-.14-.23-.08-.55.17-1a11.5,11.5,0,0,1,2.09-2.29,21.05,21.05,0,0,1,3-2.28,24.13,24.13,0,0,1,3.17-1.73,7.9,7.9,0,0,1,2.75-.82c1.21,0,1.41.75,1.42,1.22v.15c0,.72-.89,1.33-1.43,1.69M579.2,220.69c3.86-2.84,4.51-2.86,4.81-2.87h.2l.17,0c.44.15.81.32.87.94.13,1.32-1.15,2.53-2.09,3.42-.46.42-.93.82-1.43,1.2-2.47.25-4.83.49-7.1.75q2.24-1.76,4.57-3.49m-3,6.43-1.64,1c-4.14,2.62-9,5.33-9.55,5.64l-1.55.86,1.25-1.26s5-5.12,7.34-7.14l3.13-.34,3.5-.35c-.83.54-1.66,1.06-2.48,1.57"/><path class="cls-3" d="M39.68,214.51c-7.07-.32-12.27-3.51-12.09-7.4s3-7.74,7.58-10a31.27,31.27,0,0,1,3.33-1.4,36.59,36.59,0,0,1,3.57-1.06A34.1,34.1,0,0,1,45.7,194l.63-.08a1.15,1.15,0,0,1,.61,0,.13.13,0,0,1,.08.1c0,.14-.61.16-.73.18l-.85.15c-.57.11-1.15.24-1.72.39a29.43,29.43,0,0,0-3.41,1.1,27.94,27.94,0,0,0-3.2,1.47c-.6.32-1.19.68-1.76,1.06-4.17,2.76-6.13,5.89-5.39,8.59.85,3.06,4.87,5.05,10.77,5.33a72.35,72.35,0,0,0,16.5-1.68c3.08-.67,13.43-3.21,17.24-7.56,1.42-1.61,2-3.16,1.56-4.6-1.08-4-8.08-6.75-14.79-8.95L59.76,189c-7.31-2.38-14.21-4.62-14-8.39.36-7.72,21.11-11.67,29.78-11.26,6.14.28,9.74,2,9.62,4.6a4.88,4.88,0,0,1-1.43,3.39A6.89,6.89,0,0,1,82,178.93a11,11,0,0,1-1,.62c-.24.13-.69.42-1,.35a.07.07,0,0,1-.06,0c-.17-.16.3-.4.4-.47l.6-.46c1.07-.81,2.54-2,2.6-3.42.11-2.36-2.86-3.84-8.15-4.09a54.87,54.87,0,0,0-19.14,3.22c-4.68,1.84-7.39,3.84-7.42,5.49,0,1.33,1.28,2.66,3.69,3.72,1.37.59,3.17,1.21,5.06,1.86l2.48.86,2,.72a75.83,75.83,0,0,1,9.91,4c2.3,1.2,5.16,2.68,6.63,5.25,1.93,3.37-.15,7.61-3.27,9.76a39.18,39.18,0,0,1-10.4,4.9,71.43,71.43,0,0,1-24.11,3.34l-1.12-.05"/><path class="cls-3" d="M332.33,184.33l-.52-.4a8.56,8.56,0,0,0-5.21-1.22,18.83,18.83,0,0,0-2,.19,49.92,49.92,0,0,0-9.95,2.91c-4.18,1.57-8.37,3.35-12.43,5.06-2.6,1.09-5.19,2.19-7.81,3.25l-.32.13a43.86,43.86,0,0,1-6.13,2.12,6.69,6.69,0,0,1-1.29.17c-3.72.13-8.19-3.31-8.19-3.31s2,.06,3.38,0a19.66,19.66,0,0,0,2.91-.33,33.82,33.82,0,0,0,7.6-2.18,7,7,0,0,0,1.7-1,2.07,2.07,0,0,0,.94-1.58c-.08-.72-.88-1.09-1.22-1.22a12.54,12.54,0,0,0-4.82-.69l-.57,0c-3.62.24-7.39,1.75-10.63,3.14a78.06,78.06,0,0,0-8.29,4.2L264.58,197l-1.34.93,1-1.31s1.94-2.6,3-4.26a21.55,21.55,0,0,1,3-3.47c6.1-2.08,11.8-5.92,15.56-8.63,1.23-.83,2.48-1.7,3.79-2.67s2.76-2.09,4.12-3.18l.95-.75a28.6,28.6,0,0,0,3.87-3.44l.22-.24a4,4,0,0,0,1.22-2,2,2,0,0,0-1-1.93,3.31,3.31,0,0,0-1.71-.38,7.73,7.73,0,0,0-2,.52,46.54,46.54,0,0,0-8.47,4.48,74.18,74.18,0,0,0-14.37,12l-.46.53c-1.2,1.37-2.36,2.7-3.49,4-1.41.21-2.78.47-4.06.76-3.19.7-6.4,1.49-8.83,2.1-5.34,1.22-10.26,2.56-15.06,4.07-5.11,1.51-10,3.14-14.85,5-1,.34-2,.77-3.06,1.24l-.94.41a21.15,21.15,0,0,1-7,2.14,1.2,1.2,0,0,1-.48-.05.88.88,0,0,1-.66-.55c-.22-.61.29-1.43.7-2s.81-1.08,1.25-1.6c.93-1.1,1.94-2.15,2.84-3.09.12-.13.13-.18.05-.33a2.85,2.85,0,0,0-2.3-1.22.63.63,0,0,0-.31.09c-.11.06-.46.33-.62.45l-.09.07-.68-.69a3.65,3.65,0,0,0-1-.72,5,5,0,0,0-2.22-.41,5.75,5.75,0,0,0-1.29.19c-.38.1-.74.25-1.11.38a2.87,2.87,0,0,0-.47-.18,17,17,0,0,0-6.56-.93,39.76,39.76,0,0,0-9.39,1.71A97.52,97.52,0,0,0,179.67,199l-2.73,1.19c-3.1,1.28-5.69,2.24-8.17,3l-.88.26a21.13,21.13,0,0,1-5.06,1,9.2,9.2,0,0,1-1.58-.07,3.48,3.48,0,0,1-2.37-1.49,4.89,4.89,0,0,1-.54-3.71,10.63,10.63,0,0,1,1.53-3.61l0-.07.83.26a15,15,0,0,0,3.19.5c.46,0,.92,0,1.38,0a14,14,0,0,0,4.38-.85c1-.39,2.21-1.1,2.32-2.33a2.8,2.8,0,0,0-1.7-2.54,4.71,4.71,0,0,0-2.53-.52c-.67,0-6.54.34-10,3.81h0a67.55,67.55,0,0,0-8.11-.22,75.71,75.71,0,0,0-18.35,3.06c-8.72,2.46-17.26,6.21-24.59,9.53-1,.42-2,.87-3.06,1.34s-2,.92-3.06,1.34l-2.11.88a6.29,6.29,0,0,1-2.53.65,1.23,1.23,0,0,1-1.29-.91,3.3,3.3,0,0,1,.54-2.27q.67-1.12,1.38-2.22l.68-1.08c.65-1,1.32-2.11,2.07-3.09l1.69-2.21a1.23,1.23,0,0,1,.41-.34A109.35,109.35,0,0,0,114,190.84c3.14-2.31,6-4.58,8.78-6.84l2.36-.32c5-.62,10.1-.94,14.63-1.22.65,0,1.3-.09,1.95-.17l.46,0c.33,0,.52-.06.58-.15a.33.33,0,0,0,0-.26,1.49,1.49,0,0,0-1.35-1.16l-.39,0c-.88,0-1.77.08-2.66.12-1.43,0-2.92.11-4.51.25l-7.3.66-1.22.13c1.48-1.27,2.92-2.54,4.29-3.83l.15-.13c1.43-1.33,2.91-2.71,4.23-4.2,1-1.12,3.49-4.66,2.89-6.24a1.4,1.4,0,0,0-1.29-.79,1.53,1.53,0,0,0-.3,0,5.36,5.36,0,0,0-2.38,1l-.54.33c-1,.56-2,1.13-3,1.72-2.12,1.29-4.23,2.66-6.26,4.09s-4,2.94-5.94,4.5-3.81,3.21-5.57,4.87c-.26.24-.56.53-.85.82-1.25.21-2.46.42-3.65.65-3.66.68-7,1.4-10.28,2.18-2.91.7-5.58,1.39-8.19,2.11a5.06,5.06,0,0,0-1.44.58.41.41,0,0,0-.23.27.57.57,0,0,0,.23.53,1.52,1.52,0,0,0,1,.32h.21c.23,0,.46,0,.68-.07A49,49,0,0,0,94,189.32l1.79-.5c4.18-1.08,8.49-2,12.83-2.72l0,0-.05.11,0,0c-.32.31-1.85,1.78-2.07,2a105.23,105.23,0,0,0-9,10.93,5.1,5.1,0,0,1-.55.82l-.26.34-.51.74c-.34.48-.67,1-1,1.44A33.06,33.06,0,0,0,93,205.83a6.76,6.76,0,0,0-1.18,3.41,3.52,3.52,0,0,0,2.6,3,4.93,4.93,0,0,0,1.78.26,8.19,8.19,0,0,0,2.72-.66c3.84-1.54,7.66-3.25,11.36-4.91,5-2.25,10.21-4.58,15.49-6.51a85.36,85.36,0,0,1,26-5.24c1.67-.06,3.32-.05,4.95,0a7.63,7.63,0,0,0-.87,6.19c1,2.86,2.91,4.27,6.22,4.6.61.05,1.51.07,2.27.05a30.09,30.09,0,0,0,7.67-1.74A112.51,112.51,0,0,0,183,200a79.76,79.76,0,0,1,12.69-4.81,47.12,47.12,0,0,1,6.61-1.19l.77,0c1.42,0,2.87,0,4.28.1h.11a32.94,32.94,0,0,0-4.25,2.39,10.87,10.87,0,0,0-3.83,3.42,2.53,2.53,0,0,0-.12,2.52,3.36,3.36,0,0,0,1.91,1.41,4.88,4.88,0,0,0,1.8.25h.19a11.19,11.19,0,0,0,4.55-1.48c.75-.42,1.48-.87,2.22-1.31L212,200l-.69,1q-.1.15-.21.33a2.08,2.08,0,0,0,.23,2.52,4.94,4.94,0,0,0,3,.91h.86l.59,0a21.88,21.88,0,0,0,5.93-1.56l.88-.35c3.1-1.22,6.29-2.48,9.51-3.61,2.77-1,5.66-1.94,8.81-3,4.85-1.56,9.9-2.94,14.78-4.28l.92-.25c1.33-.33,2.66-.63,4.06-.95l.56-.13c1.64-.37,3.27-.74,4.89-1.17l.84-.19c-.94,1.16-1.84,2.34-2.71,3.59s-1.56,2.31-2.31,3.51c-.13.22-.29.44-.44.67a8,8,0,0,0-1.28,2.49.82.82,0,0,0,0,.34c.11.61,1.36.9,2,.87h0a1.29,1.29,0,0,0,.67-.41,14.1,14.1,0,0,1,1.6-1.22l.24-.17c2.31-1.59,4.65-3,6.65-4.19l4.23-2.49.24.33a16.1,16.1,0,0,0,1.8,2,15.77,15.77,0,0,0,3.7,2.67,12.17,12.17,0,0,0,5.33,1.13l.34,0a17.57,17.57,0,0,0,3.8-.7,60.66,60.66,0,0,0,6.53-2.52c.9-.39,1.82-.79,2.78-1.18,3.35-1.37,6.71-2.81,10-4.3a72.26,72.26,0,0,1,11.67-4.42,29.55,29.55,0,0,1,6.36-1.13,10.8,10.8,0,0,1,3.8.47,1.91,1.91,0,0,0,.59.13c.14,0,.15-.05.16-.07a2.1,2.1,0,0,0-.36-.32m-170.9,9.85A11.55,11.55,0,0,1,163.9,193a15.38,15.38,0,0,1,3.09-.9,10.85,10.85,0,0,1,1.42-.17c.72,0,1.11.09,1.28.38a.5.5,0,0,1,0,.43c-.12.34-.55.67-1.34,1a13.6,13.6,0,0,1-3.46.92c-.34.05-.75.07-1.16.09a11.69,11.69,0,0,1-2.29-.27l-.27-.06ZM123,176.59l.87-.65a57.42,57.42,0,0,1,10.2-6.65l.77-.36-.43.73c-1.06,1.77-5,5.45-5.14,5.61L128,176.45c-1.61,1.53-3.22,3.06-4.86,4.55-.44.41-1,.85-1.48,1.31h-.06c-2.39.31-4.59.62-6.68.93,2.6-2.35,5.28-4.58,8-6.66m-15.06,13.6c1.52-1.63,3.1-3.2,4.7-4.74l6.44-.95c-2.69,2.17-6.12,4.78-10.24,7.79l-.37.28c-1.55,1.13-4.71,2.93-4.84,3l-1.48.83Zm104,7.28c-.65.48-1.36,1-2.1,1.41a35.2,35.2,0,0,1-4.52,2.36,17.06,17.06,0,0,1-1.71.63,3.14,3.14,0,0,1-.73.15,1,1,0,0,1-.68-.22.63.63,0,0,1-.18-.5c.06-.65,1-1.65,3.06-3.12l.14-.1a25.54,25.54,0,0,1,5.29-3.08,3.79,3.79,0,0,1,1.33-.34,2.27,2.27,0,0,1,.78.11,3.35,3.35,0,0,1,1.31.9l.1.09-1.07.92c-.33.27-.68.54-1,.79m60.57-11.75s3.25-3.22,5.21-5.05a112.66,112.66,0,0,1,9.43-7.79c7.28-5,10.26-5.63,10.57-5.32s-.95,1.76-2.66,3.2l-1.09.93c-.74.65-1.48,1.29-2.23,1.86L290,174.9c-2,1.54-4.07,3.14-6.2,4.67-2,1.45-4.93,3.4-5.79,4a46.44,46.44,0,0,1-5.21,2.62l-1.26.53Zm4.64,5.76.83-.42a45.92,45.92,0,0,1,8-2.89,17.34,17.34,0,0,1,3.76-.61,4.28,4.28,0,0,1,2.31.33.47.47,0,0,1,.17.48c-.14.69-1.7,1.62-4.79,2.47a31.44,31.44,0,0,1-6.46.95,17.45,17.45,0,0,1-2.84-.1,4.8,4.8,0,0,1-.95-.21"/></svg>